<svg width="41" height="40" viewBox="0 0 41 40" fill="none" xmlns="http://www.w3.org/2000/svg">
<circle cx="20.7905" cy="20" r="20" fill="white"/>
<path d="M22.8921 9.47363C22.8921 9.47363 25.2079 9.68416 28.1552 12.6315C31.1026 15.5789 31.3131 17.8947 31.3131 17.8947" stroke="black" stroke-width="1.5" stroke-linecap="round"/>
<path d="M23.1118 13.1953C23.1118 13.1953 24.1539 13.493 25.7169 15.0561C27.28 16.6192 27.5778 17.6613 27.5778 17.6613" stroke="black" stroke-width="1.5" stroke-linecap="round"/>
<path d="M18.724 12.9645L19.4072 14.1887C20.0237 15.2934 19.7762 16.7426 18.8052 17.7136C18.8052 17.7136 18.8052 17.7136 18.8052 17.7136C18.8051 17.7137 17.6275 18.8916 19.7629 21.027C21.8976 23.1617 23.0754 21.9855 23.0762 21.9847C23.0763 21.9846 23.0762 21.9847 23.0763 21.9846C24.0473 21.0136 25.4965 20.7662 26.6012 21.3827L27.8253 22.0658C29.4935 22.9968 29.6905 25.3362 28.2242 26.8025C27.3431 27.6835 26.2638 28.3691 25.0707 28.4143C23.0621 28.4905 19.6511 27.9821 16.2294 24.5605C12.8077 21.1388 12.2994 17.7278 12.3755 15.7192C12.4208 14.526 13.1063 13.4467 13.9874 12.5657C15.4537 11.0994 17.793 11.2964 18.724 12.9645Z" stroke="black" stroke-width="1.5" stroke-linecap="round"/>
</svg>
