<svg width="95" height="29" viewBox="0 0 95 29" fill="none" xmlns="http://www.w3.org/2000/svg">
<path d="M21.5029 0.798035V5.68436L7.98471 22.895H21.5029V28.4595H0.443848L0.443848 23.5719L13.957 6.36256L0.685861 6.36256L0.685861 0.798035L21.5029 0.798035ZM47.6687 6.53665C46.4431 4.8279 44.8501 3.42475 43.0105 2.43366C41.1709 1.44258 39.133 0.889572 37.0514 0.81659C34.9698 0.743609 32.8991 1.15257 30.9965 2.01246C29.0938 2.87234 27.4092 4.16056 26.0703 5.7794C24.7314 7.39825 23.7735 9.30519 23.2692 11.3556C22.7648 13.406 22.7273 15.546 23.1596 17.6133C23.5918 19.6806 24.4823 21.6209 25.7636 23.287C27.045 24.9531 28.6835 26.3012 30.5548 27.2292L34.5551 23.1704C33.087 22.8027 31.7415 22.0457 30.6565 20.977C29.5715 19.9083 28.7859 18.5662 28.3801 17.0882C27.9743 15.6102 27.9629 14.0493 28.3471 12.5654C28.7312 11.0814 29.4971 9.72768 30.5664 8.64277C31.6357 7.55787 32.9699 6.78076 34.4325 6.39098C35.8951 6.00121 37.4335 6.01276 38.8902 6.42449C40.347 6.83621 41.6697 7.63332 42.723 8.73418C43.7763 9.83505 44.5224 11.2001 44.8849 12.6897L48.9133 8.60239C48.5586 7.87828 48.1422 7.18706 47.6687 6.53665ZM55.5092 1.91016L51.313 6.16118C53.4792 6.41203 55.4686 7.49439 56.8733 9.18624C58.2779 10.8781 58.9913 13.0512 58.8669 15.2597C58.7426 17.4682 57.7901 19.5447 56.2047 21.0633C54.6193 22.5819 52.5213 23.4274 50.3411 23.4264C48.2472 23.4245 46.2268 22.6431 44.6631 21.2301C43.0994 19.8172 42.1011 17.8711 41.8578 15.761L37.6321 20.0484C38.0616 21.0909 38.6132 22.0772 39.275 22.9859C40.5234 24.7276 42.1533 26.1514 44.0363 27.1452C45.9193 28.139 48.004 28.6756 50.1262 28.7128C52.2485 28.7501 54.3502 28.2868 56.266 27.3596C58.1817 26.4325 59.8591 25.0666 61.1661 23.3698C62.473 21.6729 63.3738 19.6913 63.7975 17.5811C64.2212 15.4709 64.1562 13.2897 63.6077 11.2094C63.0592 9.12896 62.0421 7.20619 60.6365 5.5925C59.231 3.97881 57.4766 2.71827 55.5092 1.91016ZM93.9011 14.7645C93.9045 18.2462 92.61 21.6004 90.2773 24.1539L94.2289 28.1035H87.1657L86.2616 27.1941C83.5964 28.5233 80.5769 28.9354 77.6601 28.3681C74.7434 27.8008 72.0882 26.285 70.0962 24.0501C68.1043 21.8151 66.8841 18.9827 66.6203 15.9813C66.3565 12.98 67.0634 9.97318 68.6341 7.41586C70.2048 4.85855 72.5538 2.88994 75.3256 1.80795C78.0973 0.725951 81.1411 0.589459 83.9961 1.41913C86.8512 2.2488 89.3621 3.99948 91.1491 6.40623C92.936 8.81298 93.9016 11.7448 93.8998 14.7581L93.9011 14.7645ZM71.6204 14.7645C71.6217 16.4772 72.1234 18.1511 73.062 19.5746C74.0007 20.9981 75.3342 22.1073 76.894 22.762C78.4539 23.4167 80.17 23.5876 81.8255 23.2529C83.481 22.9183 85.0016 22.0932 86.195 20.882C87.3885 19.6707 88.2012 18.1277 88.5306 16.4479C88.8599 14.7681 88.691 13.0269 88.0452 11.4445C87.3995 9.86208 86.3059 8.5094 84.9026 7.55745C83.4993 6.60549 81.8494 6.09699 80.1613 6.09621C79.0399 6.09673 77.9295 6.32134 76.8937 6.75724C75.8578 7.19314 74.9166 7.8318 74.124 8.63673C73.3314 9.44166 72.7028 10.3971 72.2741 11.4485C71.8454 12.4999 71.625 13.6267 71.6255 14.7645H71.6204Z" fill="black"/>
</svg>
