<svg width="41" height="40" viewBox="0 0 41 40" fill="none" xmlns="http://www.w3.org/2000/svg">
<circle cx="20.7905" cy="20" r="20" fill="white"/>
<path fill-rule="evenodd" clip-rule="evenodd" d="M18.805 11.5566H22.7736C24.5468 11.5566 25.9514 11.5566 27.0506 11.7044C28.1819 11.8565 29.0976 12.177 29.8197 12.8991C30.5418 13.6212 30.8623 14.5368 31.0144 15.6681C31.1621 16.7674 31.1621 18.1719 31.1621 19.9452V20.0541C31.1621 21.8273 31.1621 23.2319 31.0144 24.3311C30.8623 25.4624 30.5418 26.3781 29.8197 27.1002C29.0976 27.8223 28.1819 28.1427 27.0506 28.2948C25.9514 28.4426 24.5468 28.4426 22.7736 28.4426H18.8051C17.0318 28.4426 15.6272 28.4426 14.528 28.2948C13.3967 28.1427 12.481 27.8223 11.7589 27.1002C11.0368 26.3781 10.7164 25.4624 10.5643 24.3311C10.4165 23.2319 10.4165 21.8273 10.4165 20.0541V19.9452C10.4165 18.1719 10.4165 16.7674 10.5643 15.6681C10.7164 14.5368 11.0368 13.6212 11.7589 12.8991C12.481 12.177 13.3967 11.8565 14.528 11.7044C15.6272 11.5566 17.0318 11.5566 18.805 11.5566ZM14.7208 13.1389C13.75 13.2694 13.1907 13.5142 12.7824 13.9225C12.374 14.3309 12.1292 14.8902 11.9987 15.861C11.8654 16.8526 11.8639 18.1597 11.8639 19.9996C11.8639 21.8395 11.8654 23.1467 11.9987 24.1383C12.1292 25.1091 12.374 25.6684 12.7824 26.0767C13.1907 26.4851 13.75 26.7299 14.7208 26.8604C15.7124 26.9937 17.0196 26.9952 18.8595 26.9952H22.7191C24.5591 26.9952 25.8662 26.9937 26.8578 26.8604C27.8286 26.7299 28.3879 26.4851 28.7962 26.0767C29.2046 25.6684 29.4494 25.1091 29.5799 24.1383C29.7132 23.1467 29.7147 21.8395 29.7147 19.9996C29.7147 18.1597 29.7132 16.8526 29.5799 15.861C29.4494 14.8902 29.2046 14.3309 28.7962 13.9225C28.3879 13.5142 27.8286 13.2694 26.8578 13.1389C25.8662 13.0055 24.5591 13.004 22.7191 13.004H18.8595C17.0196 13.004 15.7124 13.0055 14.7208 13.1389ZM14.4439 15.6767C14.6998 15.3696 15.1561 15.3282 15.4631 15.584L17.5463 17.32C18.4465 18.0702 19.0715 18.5893 19.5992 18.9287C20.11 19.2572 20.4563 19.3675 20.7893 19.3675C21.1223 19.3675 21.4687 19.2572 21.9795 18.9287C22.5071 18.5893 23.1321 18.0702 24.0324 17.32L26.1155 15.584C26.4225 15.3282 26.8789 15.3696 27.1347 15.6767C27.3906 15.9837 27.3491 16.4401 27.0421 16.6959L24.9227 18.4621C24.0674 19.1748 23.3742 19.7525 22.7624 20.146C22.1251 20.5559 21.5044 20.8149 20.7893 20.8149C20.0742 20.8149 19.4536 20.5559 18.8162 20.146C18.2044 19.7525 17.5112 19.1749 16.656 18.4621L14.5365 16.6959C14.2295 16.4401 14.188 15.9837 14.4439 15.6767Z" fill="black"/>
</svg>
