<svg width="72" height="22" viewBox="0 0 72 22" fill="none" xmlns="http://www.w3.org/2000/svg">
<path d="M16.1673 0V3.85069L5.78922 17.4136H16.1673V21.7987H0L0 17.947L10.3742 4.38514L0.185797 4.38514L0.185797 0L16.1673 0ZM36.2551 4.52234C35.3142 3.17575 34.0913 2.06999 32.679 1.28896C31.2667 0.507934 29.7022 0.0721364 28.1041 0.0146228C26.506 -0.0428907 24.9163 0.279395 23.4556 0.957029C21.995 1.63466 20.7016 2.64985 19.6738 3.92558C18.6459 5.20132 17.9105 6.70409 17.5233 8.31993C17.1361 9.93576 17.1073 11.6222 17.4391 13.2513C17.771 14.8805 18.4546 16.4095 19.4383 17.7225C20.422 19.0355 21.6799 20.0979 23.1166 20.8291L26.1876 17.6306C25.0605 17.3408 24.0276 16.7443 23.1947 15.9021C22.3617 15.0599 21.7585 14.0023 21.447 12.8375C21.1355 11.6728 21.1267 10.4427 21.4217 9.27328C21.7166 8.10385 22.3046 7.03704 23.1255 6.18207C23.9464 5.32711 24.9707 4.71471 26.0935 4.40754C27.2164 4.10038 28.3974 4.10948 29.5158 4.43395C30.6341 4.75841 31.6496 5.38657 32.4583 6.25411C33.2669 7.12165 33.8397 8.19741 34.1179 9.37127L37.2106 6.15025C36.9383 5.57961 36.6186 5.0349 36.2551 4.52234ZM42.2744 0.876416L39.0529 4.22645C40.7159 4.42413 42.2432 5.27709 43.3216 6.61035C44.4 7.94362 44.9476 9.65613 44.8522 11.3966C44.7567 13.137 44.0254 14.7734 42.8083 15.9701C41.5912 17.1668 39.9805 17.8332 38.3067 17.8323C36.6992 17.8309 35.1481 17.215 33.9477 16.1016C32.7472 14.9881 31.9808 13.4545 31.794 11.7916L28.5499 15.1703C28.8797 15.9919 29.3031 16.7691 29.8112 17.4853C30.7696 18.8578 32.0209 19.9798 33.4665 20.763C34.9121 21.5461 36.5126 21.969 38.1418 21.9984C39.7711 22.0277 41.3846 21.6626 42.8553 20.932C44.3261 20.2013 45.6139 19.125 46.6172 17.7877C47.6206 16.4505 48.3121 14.8889 48.6374 13.226C48.9627 11.563 48.9128 9.84414 48.4917 8.20468C48.0706 6.56522 47.2898 5.04997 46.2107 3.77829C45.1316 2.50662 43.7848 1.51325 42.2744 0.876416ZM71.7483 11.0064C71.7509 13.7501 70.7571 16.3934 68.9663 18.4057L72 21.5182H66.5775L65.8834 20.8015C63.8372 21.849 61.5192 22.1737 59.2799 21.7267C57.0407 21.2797 55.0023 20.0851 53.473 18.3239C51.9438 16.5626 51.007 14.3305 50.8045 11.9653C50.602 9.60005 51.1447 7.23051 52.3506 5.2152C53.5564 3.1999 55.3597 1.64854 57.4877 0.795865C59.6156 -0.0568055 61.9523 -0.164368 64.1441 0.489458C66.336 1.14328 68.2637 2.52291 69.6356 4.41956C71.0074 6.31621 71.7487 8.62665 71.7473 11.0012L71.7483 11.0064ZM54.6432 11.0064C54.6441 12.3561 55.0293 13.6752 55.7499 14.797C56.4705 15.9187 57.4943 16.7929 58.6918 17.3088C59.8893 17.8247 61.2068 17.9594 62.4778 17.6957C63.7487 17.432 64.9161 16.7817 65.8323 15.8272C66.7485 14.8727 67.3725 13.6567 67.6253 12.3329C67.8781 11.0092 67.7485 9.63704 67.2527 8.38999C66.757 7.14295 65.9174 6.07697 64.8401 5.32678C63.7627 4.57659 62.4961 4.17586 61.2001 4.17525C60.3392 4.17565 59.4868 4.35266 58.6915 4.69617C57.8962 5.03969 57.1737 5.54298 56.5652 6.17731C55.9567 6.81164 55.4741 7.56458 55.145 8.39315C54.8159 9.22172 54.6467 10.1097 54.6471 11.0064H54.6432Z" fill="white"/>
</svg>
